<mxfile host="app.diagrams.net" modified="2020-08-06T02:40:31.358Z" agent="5.0 (Windows)" etag="zgUHbPSNVcQ26TMMzVvm" version="13.6.0" type="github">
  <diagram id="IRF_-kI9VvLpmpYS9c5I" name="Page-1">
    <mxGraphModel dx="1422" dy="763" grid="1" gridSize="10" guides="1" tooltips="1" connect="1" arrows="1" fold="1" page="1" pageScale="1" pageWidth="827" pageHeight="1169" math="0" shadow="0">
      <root>
        <mxCell id="0" />
        <mxCell id="1" parent="0" />
        <mxCell id="vN2aYcRAJGNYWSL3q_tj-13" value="" style="edgeStyle=orthogonalEdgeStyle;rounded=0;orthogonalLoop=1;jettySize=auto;html=1;" edge="1" parent="1" source="vN2aYcRAJGNYWSL3q_tj-11" target="vN2aYcRAJGNYWSL3q_tj-12">
          <mxGeometry relative="1" as="geometry" />
        </mxCell>
        <mxCell id="vN2aYcRAJGNYWSL3q_tj-15" value="" style="edgeStyle=orthogonalEdgeStyle;rounded=0;orthogonalLoop=1;jettySize=auto;html=1;" edge="1" parent="1" source="vN2aYcRAJGNYWSL3q_tj-11" target="vN2aYcRAJGNYWSL3q_tj-14">
          <mxGeometry relative="1" as="geometry" />
        </mxCell>
        <mxCell id="vN2aYcRAJGNYWSL3q_tj-17" value="" style="edgeStyle=orthogonalEdgeStyle;rounded=0;orthogonalLoop=1;jettySize=auto;html=1;" edge="1" parent="1" source="vN2aYcRAJGNYWSL3q_tj-11" target="vN2aYcRAJGNYWSL3q_tj-16">
          <mxGeometry relative="1" as="geometry" />
        </mxCell>
        <mxCell id="vN2aYcRAJGNYWSL3q_tj-19" value="" style="edgeStyle=orthogonalEdgeStyle;rounded=0;orthogonalLoop=1;jettySize=auto;html=1;" edge="1" parent="1" source="vN2aYcRAJGNYWSL3q_tj-11" target="vN2aYcRAJGNYWSL3q_tj-18">
          <mxGeometry relative="1" as="geometry" />
        </mxCell>
        <mxCell id="vN2aYcRAJGNYWSL3q_tj-11" value="" style="rounded=0;whiteSpace=wrap;html=1;" vertex="1" parent="1">
          <mxGeometry x="220" y="90" width="120" height="60" as="geometry" />
        </mxCell>
        <mxCell id="vN2aYcRAJGNYWSL3q_tj-12" value="" style="rounded=0;whiteSpace=wrap;html=1;" vertex="1" parent="1">
          <mxGeometry x="60" y="210" width="120" height="60" as="geometry" />
        </mxCell>
        <mxCell id="vN2aYcRAJGNYWSL3q_tj-14" value="" style="rounded=0;whiteSpace=wrap;html=1;" vertex="1" parent="1">
          <mxGeometry x="270" y="210" width="120" height="60" as="geometry" />
        </mxCell>
        <mxCell id="vN2aYcRAJGNYWSL3q_tj-16" value="" style="rounded=0;whiteSpace=wrap;html=1;" vertex="1" parent="1">
          <mxGeometry x="460" y="210" width="120" height="60" as="geometry" />
        </mxCell>
        <mxCell id="vN2aYcRAJGNYWSL3q_tj-18" value="" style="rounded=0;whiteSpace=wrap;html=1;" vertex="1" parent="1">
          <mxGeometry x="660" y="220" width="120" height="60" as="geometry" />
        </mxCell>
        <mxCell id="vN2aYcRAJGNYWSL3q_tj-22" value="" style="edgeStyle=orthogonalEdgeStyle;rounded=0;orthogonalLoop=1;jettySize=auto;html=1;" edge="1" parent="1" source="vN2aYcRAJGNYWSL3q_tj-20" target="vN2aYcRAJGNYWSL3q_tj-21">
          <mxGeometry relative="1" as="geometry" />
        </mxCell>
        <mxCell id="vN2aYcRAJGNYWSL3q_tj-24" value="" style="edgeStyle=orthogonalEdgeStyle;rounded=0;orthogonalLoop=1;jettySize=auto;html=1;exitX=1;exitY=0.25;exitDx=0;exitDy=0;" edge="1" parent="1" source="vN2aYcRAJGNYWSL3q_tj-21" target="vN2aYcRAJGNYWSL3q_tj-23">
          <mxGeometry relative="1" as="geometry" />
        </mxCell>
        <mxCell id="vN2aYcRAJGNYWSL3q_tj-26" value="" style="edgeStyle=orthogonalEdgeStyle;rounded=0;orthogonalLoop=1;jettySize=auto;html=1;" edge="1" parent="1" source="vN2aYcRAJGNYWSL3q_tj-20" target="vN2aYcRAJGNYWSL3q_tj-25">
          <mxGeometry relative="1" as="geometry" />
        </mxCell>
        <mxCell id="vN2aYcRAJGNYWSL3q_tj-20" value="" style="ellipse;whiteSpace=wrap;html=1;" vertex="1" parent="1">
          <mxGeometry x="310" y="390" width="120" height="80" as="geometry" />
        </mxCell>
        <mxCell id="vN2aYcRAJGNYWSL3q_tj-21" value="" style="whiteSpace=wrap;html=1;" vertex="1" parent="1">
          <mxGeometry x="310" y="560" width="120" height="60" as="geometry" />
        </mxCell>
        <mxCell id="vN2aYcRAJGNYWSL3q_tj-23" value="" style="ellipse;whiteSpace=wrap;html=1;" vertex="1" parent="1">
          <mxGeometry x="570" y="550" width="120" height="80" as="geometry" />
        </mxCell>
        <mxCell id="vN2aYcRAJGNYWSL3q_tj-25" value="" style="whiteSpace=wrap;html=1;" vertex="1" parent="1">
          <mxGeometry x="100" y="555" width="120" height="60" as="geometry" />
        </mxCell>
      </root>
    </mxGraphModel>
  </diagram>
</mxfile>
